<mxfile host="app.diagrams.net" modified="2023-06-30T17:22:14.412Z" agent="Mozilla/5.0 (Windows NT 10.0; Win64; x64) AppleWebKit/537.36 (KHTML, like Gecko) Chrome/114.0.0.0 Safari/537.36" etag="JPuRjeqDfYT1Z8KbYJfV" version="21.5.2" type="device">
  <diagram name="Page-1" id="BzTs_aSkMht2tjMsphRT">
    <mxGraphModel dx="1228" dy="657" grid="1" gridSize="10" guides="1" tooltips="1" connect="1" arrows="1" fold="1" page="1" pageScale="1" pageWidth="850" pageHeight="1100" math="0" shadow="0">
      <root>
        <mxCell id="0" />
        <mxCell id="1" parent="0" />
      </root>
    </mxGraphModel>
  </diagram>
</mxfile>
